HIERARCHY
ROOT ui
{
	 OFFSET 0 0 0
	 CHANNELS 3 XPosition YPosition Z Position
	 EndSite
	 {
	 OFFSET 0 -1 0
	 }
}
ROOT li
{
	 OFFSET 0 0 0
	 CHANNELS 3 XPosition YPosition Z Position
	 EndSite
	 {
	 OFFSET 0 -1 0
	 }
}
ROOT ul
{
	 OFFSET 0 0 0
	 CHANNELS 3 XPosition YPosition Z Position
	 EndSite
	 {
	 OFFSET 0 -1 0
	 }
}
ROOT ll
{
	 OFFSET 0 0 0
	 CHANNELS 3 XPosition YPosition Z Position
	 EndSite
	 {
	 OFFSET 0 -1 0
	 }
}
ROOT tt
{
	 OFFSET 0 0 0
	 CHANNELS 3 XPosition YPosition Z Position
	 EndSite
	 {
	 OFFSET 0 -1 0
	 }
}
ROOT tb
{
	 OFFSET 0 0 0
	 CHANNELS 3 XPosition YPosition Z Position
	 EndSite
	 {
	 OFFSET 0 -1 0
	 }
}
ROOT td
{
	 OFFSET 0 0 0
	 CHANNELS 3 XPosition YPosition Z Position
	 EndSite
	 {
	 OFFSET 0 -1 0
	 }
}
ROOT v
{
	 OFFSET 0 0 0
	 CHANNELS 3 XPosition YPosition Z Position
	 EndSite
	 {
	 OFFSET 0 -1 0
	 }
}
ROOT bn
{
	 OFFSET 0 0 0
	 CHANNELS 3 XPosition YPosition Z Position
	 EndSite
	 {
	 OFFSET 0 -1 0
	 }
}
MOTION
Frames: 29
Frame Time: 0.002
9.512799978256225E-5	4.614799842238426E-5	0		0.5543043823242187	-2.47423779296875	0		-1.078916015625	0.13425144958496094	0		-0.665640869140625	-2.593968505859375	0		1.54067333984375	-0.8506881713867187	0		3.196724853515625	0.07075100708007813	0		4.7775380859375	0.1717383575439453	0		5.6774892578125	0.26329632568359373	0		-0.34935235595703124	5.86287158203125	0		
2.2815799713134767E-4	4.904700070619583E-5	0		0.5793827514648437	-2.479428466796875	0		-1.0787821044921875	0.13426129150390625	0		-0.6655245361328125	-2.59396142578125	0		1.4758255615234375	-0.8472008056640625	0		3.192820556640625	0.06576393127441406	0		4.78361865234375	0.16466510009765625	0		5.67469287109375	0.25118202209472656	0		-0.349181640625	5.862876953125	0		
-0.02665123176574707	2.6083898544311524E-4	0		0.5525032348632812	-2.477220458984375	0		-1.078661376953125	0.1342742156982422	0		-0.6674359741210938	-2.595935791015625	0		1.5409154052734375	-0.8506985473632812	0		3.201932861328125	0.06468183135986329	0		4.78373974609375	0.16464161682128906	0		5.67477783203125	0.25113262939453124	0		-0.35001776123046874	5.863892578125	0		
4.468050003051758E-4	6.567899882793427E-5	0		0.5546104125976562	-2.474228515625	0		-1.0695087890625	0.14122210693359374	0		-0.7054730224609375	-2.611631591796875	0		1.4760340576171875	-0.847201904296875	0		3.212986083984375	0.05859000015258789	0		4.7977705078125	0.155517822265625	0		5.67773876953125	0.2631513061523437	0		-0.34889251708984376	5.8628974609375	0		
-0.022449209213256837	0.00425625991821289	0		0.5566856079101562	-2.4722314453125	0		-1.0694351806640625	0.14124301147460938	0		-0.6632625732421875	-2.591933349609375	0		1.5441080322265626	-0.8467127075195312	0		3.197151123046875	0.07071026611328125	0		4.80290478515625	0.1634698486328125	0		5.6777900390625	0.26312741088867186	0		-0.3337210083007813	5.87180029296875	0		
5.644770264625549E-4	1.0173399746417999E-4	0		0.554704345703125	-2.47419775390625	0		-1.0744200439453124	0.1373067169189453	0		-0.6992052001953125	-2.588635009765625	0		1.4761435546875	-0.8471800537109375	0		3.232141845703125	0.06345006561279297	0		4.80788916015625	0.15543145751953125	0		5.677822265625	0.2631204833984375	0		-0.3487184753417969	5.86293701171875	0		
5.81845998764038E-4	1.278879940509796E-4	0		0.5526902465820313	-2.477158203125	0		-1.0024348754882813	0.13278720092773438	0		-0.667251220703125	-2.5958505859375	0		1.5411331787109375	-0.850655029296875	0		3.241151611328125	0.062396312713623045	0		4.80386181640625	0.14947158813476563	0		5.67071826171875	0.268453857421875	0		-0.3486806945800781	5.86296435546875	0		
5.735219717025757E-4	1.5922699868679046E-4	0		0.5526758422851562	-2.477128173828125	0		-1.0784329833984374	0.13440121459960938	0		-0.703241943359375	-2.592542724609375	0		1.4761475830078126	-0.8471312866210937	0		3.217151611328125	0.0636029396057129	0		4.803853515625	0.14949119567871094	0		5.6749365234375	0.251105712890625	0		-0.3146298828125	5.86873681640625	0		
5.415080189704895E-4	1.9540800154209138E-4	0		0.5546632690429687	-2.474108154296875	0		-1.0744420166015625	0.13740824890136719	0		-0.634470458984375	-2.61803173828125	0		1.4761143798828125	-0.84709716796875	0		3.202127685546875	0.06474916839599609	0		4.81280615234375	0.14745204162597655	0		5.67491357421875	0.25115486145019533	0		-0.3477062377929688	5.862025390625	0		
0.0164716796875	-0.0018860479593276976	0		0.5586384887695313	-2.470098388671875	0		-1.0654351806640625	0.14538044738769532	0		-0.6634561157226563	-2.608769775390625	0		1.4851436767578126	-0.8361261596679688	0		3.250041748046875	0.060421974182128906	0		4.81074462890625	0.14650587463378906	0		5.680662109375	0.277064453125	0		-0.33268942260742185	5.87095166015625	0		
0.0034345080852508543	0.0032579329013824464	0		0.5545330200195312	-2.474022705078125	0		-1.0026044921875	0.13294424438476563	0		-0.66541650390625	-2.593710205078125	0		1.5409595947265624	-0.8505081176757813	0		3.231989501953125	0.0636051254272461	0		4.8187373046875	0.15549075317382813	0		5.67771240234375	0.2633580932617188	0		-0.3828799438476562	5.85637841796875	0		
-0.02668585968017578	5.357509851455688E-4	0		0.5524139404296875	-2.476958251953125	0		-1.078693115234375	0.13457234191894532	0		-0.6655126953125	-2.593662109375	0		1.4758868408203125	-0.8469619750976562	0		3.201899658203125	0.06488552093505859	0		4.8085322265625	0.1416201934814453	0		5.6747509765625	0.2513935699462891	0		-0.3479383544921875	5.86215966796875	0		
1.9177000224590302E-4	3.814679980278015E-4	0		0.5502803955078125	-2.478890380859375	0		-1.00282470703125	0.13304261779785156	0		-0.6676460571289062	-2.595595703125	0		1.475766357421875	-0.8469081420898438	0		3.241662353515625	0.04963667678833008	0		4.81841015625	0.14160205078125	0		5.670439453125	0.2688747863769531	0		-0.34905999755859374	5.86321875	0		
-0.02695048522949219	6.417840123176575E-4	0		0.5271959838867187	-2.47165966796875	0		-1.0789581298828126	0.13467506408691407	0		-0.6699293212890625	-2.61452685546875	0		1.4756248779296874	-0.8468511962890625	0		3.2215732421875	0.05684926986694336	0		4.81231298828125	0.147710693359375	0		5.66743017578125	0.25173957824707033	0		-0.34822137451171875	5.8622646484375	0		
0.006942412853240967	0.0074375648498535155	0		0.583017822265625	-2.4750302734375	0		-0.9950670166015625	0.14108683776855468	0		-0.63309130859375	-2.61575537109375	0		1.4815206298828125	-0.8398381958007812	0		3.25141259765625	0.05668353271484375	0		4.827091796875	0.13966343688964844	0		5.67733984375	0.2637834777832031	0		-0.33431900024414063	5.8722119140625	0		
-0.01734719467163086	-0.008323756217956543	0		0.5538654174804688	-2.473752197265625	0		-1.07928662109375	0.13477987670898436	0		-0.6352669677734375	-2.617686767578125	0		1.54027685546875	-0.8502283325195312	0		3.22619921875	0.05093923568725586	0		4.8269228515625	0.13973300170898437	0		5.67432958984375	0.25185093688964844	0		-0.34858065795898435	5.86237353515625	0		
-4.4614899158477783E-4	5.993419885635376E-4	0		0.5786683349609375	-2.4788876953125	0		-1.0034640502929688	0.13324969482421875	0		-0.6662408447265625	-2.593400390625	0		1.4971292724609375	-0.847842041015625	0		3.260969970703125	0.042737190246582034	0		4.8227099609375	0.13383392333984376	0		5.6742099609375	0.2519772491455078	0		-0.3487687072753906	5.86242529296875	0		
-0.027599361419677733	8.544269800186158E-4	0		0.549525390625	-2.478614990234375	0		-1.0796087646484376	0.13487397766113282	0		-0.6683993530273438	-2.59533837890625	0		1.5399622802734374	-0.8501141357421875	0		3.220923583984375	0.05710434341430664	0		4.82255517578125	0.13390313720703126	0		5.6741005859375	0.2521025085449219	0		-0.34894680786132815	5.86247314453125	0		
0.08619365692138672	-0.009968874931335449	0		0.5534472045898438	-2.473598388671875	0		-1.0797369384765625	0.1349136199951172	0		-0.6956968994140625	-2.619090576171875	0		1.48091650390625	-0.8396134033203125	0		3.240741943359375	0.05001169967651367	0		4.8273662109375	0.12593212127685546	0		5.6740107421875	0.2522242889404297	0		-0.33403323364257814	5.8714013671875	0		
-0.01674106979370117	0.01085404109954834	0		0.5573999633789063	-2.4695869140625	0		-1.0707745361328125	0.14187879943847656	0		-0.6297147827148437	-2.611557373046875	0		1.54783642578125	-0.83907666015625	0		3.268681396484375	0.05385395050048828	0		4.8353740234375	0.13893423461914062	0		5.67683740234375	0.2643975524902344	0		-0.33216778564453125	5.869423828125	0		
0.07612476348876954	-8.19471001625061E-4	0		0.5533346557617187	-2.47352001953125	0		-1.0798759765625	0.13497538757324218	0		-0.7025872192382813	-2.58997265625	0		1.49975634765625	-0.8436699829101563	0		3.250656494140625	0.057041145324707034	0		4.8373330078125	0.13997749328613282	0		5.6739130859375	0.25244859313964846	0		-0.3352230224609375	5.872478515625	0		
-0.02787335205078125	9.98166024684906E-4	0		0.5513156127929687	-2.476474853515625	0		-1.0798853759765625	0.1349968719482422	0		-0.6686218872070312	-2.595207275390625	0		1.5397052001953124	-0.8499393310546876	0		3.225602783203125	0.051274585723876956	0		4.8222783203125	0.13414292907714845	0		5.6739072265625	0.2525438995361328	0		-0.3843814697265625	5.85687646484375	0		
-0.004882832050323486	-0.0031574060916900633	0		0.5493333129882813	-2.47843798828125	0		-1.079864501953125	0.1350111083984375	0		-0.7045647583007812	-2.59191796875	0		1.4747552490234375	-0.8464196166992187	0		3.260562255859375	0.043042728424072266	0		4.82229931640625	0.13418389892578125	0		5.67102685546875	0.23883378601074218	0		-0.31530487060546875	5.86736962890625	0		
-0.01787860679626465	-0.008048403739929199	0		0.553422119140625	-2.473456298828125	0		-1.0798231201171875	0.13501730346679688	0		-0.6247661743164062	-2.625516845703125	0		1.4748001708984375	-0.8464039916992188	0		3.24561181640625	0.044178817749023436	0		4.83221923828125	0.11813646697998047	0		5.67395263671875	0.25267428588867186	0		-0.3833739013671875	5.85589501953125	0		
0.0022659599781036377	0.0038002419471740725	0		0.5554976196289062	-2.471469482421875	0		-1.075746826171875	0.1379848937988281	0		-0.66860546875	-2.61218408203125	0		1.4809093017578125	-0.8394451293945312	0		3.255711181640625	0.050111919403076174	0		4.83137890625	0.13215689086914062	0		5.6768828125	0.26475775146484376	0		-0.3482904052734375	5.86162939453125	0		
-6.96075975894928E-4	8.147749900817872E-4	0		0.5535462036132812	-2.473461669921875	0		-1.00371875	0.13342906188964843	0		-0.6663974609375	-2.593208984375	0		1.5398934326171876	-0.8498989868164063	0		3.260718505859375	0.043069908142089844	0		4.83839404296875	0.12610163879394531	0		5.67403515625	0.2526982421875	0		-0.3832815551757813	5.85588623046875	0		
0.008297831535339355	-0.008270182609558106	0		0.5515856323242188	-2.476463623046875	0		-1.079646484375	0.13498890686035156	0		-0.6683505249023437	-2.59521044921875	0		1.539955810546875	-0.8499161376953125	0		3.26078076171875	0.043052513122558596	0		4.83845654296875	0.12608401489257812	0		5.66273291015625	0.27363699340820313	0		-0.34817373657226564	5.861603515625	0		
-0.03059586524963379	-0.0019990479946136474	0		0.5496266479492188	-2.4784736328125	0		-1.0086266479492187	0.12942710876464844	0		-0.6682945556640625	-2.595234130859375	0		1.475038818359375	-0.8464497680664063	0		3.2458486328125	0.04413700866699219	0		4.83851611328125	0.12605245208740234	0		5.67122607421875	0.23882398986816405	0		-0.3490980834960937	5.8625869140625	0		
-5.205649733543396E-4	7.424740195274354E-4	0		0.5267275390625	-2.47133154296875	0		-1.0795328369140624	0.13493780517578124	0		-0.6594529418945313	-2.622330810546875	0		1.503028564453125	-0.8546965942382813	0		3.245902099609375	0.04409807205200195	0		4.83250927734375	0.11805525970458984	0		5.67415966796875	0.25253341674804686	0		-0.3480374755859375	5.8615498046875	0		
